<?xml version="1.0" standalone="no"?>
<!DOCTYPE svg PUBLIC "-//W3C//DTD SVG 1.1//EN" "http://www.w3.org/Graphics/SVG/1.1/DTD/svg11.dtd" >
<svg xmlns="http://www.w3.org/2000/svg">
<metadata>Generated by IcoMoon</metadata>
<defs>
<font id="icomoon" horiz-adv-x="1024">
<font-face units-per-em="1024" ascent="960" descent="-64" />
<missing-glyph horiz-adv-x="1024" />
<glyph unicode="&#x20;" horiz-adv-x="512" d="" />
<glyph unicode="&#xe900;" glyph-name="brief" d="M118.246 645.052h-60.971v-492.834c0-36.294 27.296-65.714 60.971-65.714h43v558.548h-43zM905.79 645.052h-40.696v-558.56h40.696c33.651 0 60.959 29.421 60.959 65.714v492.834l-60.959 0.012zM736.24 645.052v179.816h-446.612v-179.816h-67.386v-558.56h581.833v558.56h-67.835zM350.635 764.614h324.609v-119.562h-324.609v119.562z" />
<glyph unicode="&#xe901;" glyph-name="throphy" d="M876.457 807.382c-29.39 6.502-63.327 2.329-95.279-9.712 0.273 17.267 0.192 34.13-0.294 50.303h-547.896c-0.486-16.174-0.577-33.036-0.294-50.303-31.952 12.042-65.879 16.214-95.279 9.712-43.467-9.56-72.979-39.436-83.096-84.048-13.216-58.243 15.88-125.024 81.921-188.057 52.035-49.655 121.844-90.965 195.572-116.486 30.544-43.062 69.647-77.759 119.261-98.854-7.231-26.423-32.621-102.966-93.973-149.806h299.682c-61.362 46.84-86.742 123.383-93.973 149.806 49.614 21.096 88.727 55.792 119.261 98.864 73.718 25.511 143.537 66.821 195.572 116.476 66.041 63.044 95.137 129.814 81.921 188.057-10.127 44.612-39.639 74.488-83.106 84.048v0zM180.204 581.327c-47.761 45.614-71.611 93.416-63.783 127.91 4.598 20.356 15.637 31.78 34.717 35.993 25.187 5.56 58.041-2.886 85.101-19.627 6.147-73.009 20.569-149.259 47.559-216.91-38.839 20.194-74.508 44.865-103.594 72.634v0zM833.669 581.327c-29.086-27.759-64.755-52.44-103.594-72.644 27 67.652 41.421 143.901 47.559 216.91 27.061 16.731 59.914 25.177 85.101 19.627 19.080-4.213 30.119-15.637 34.717-35.993 7.828-34.494-16.022-82.296-63.783-127.9v0zM314.514 129.976h384.844v-83.187h-384.844z" />
<glyph unicode="&#xe902;" glyph-name="idea" d="M575.015 145.999h-160.784c-17.62 0-31.902-14.284-31.902-31.902s14.282-31.902 31.902-31.902h160.784c17.617 0 31.902 14.284 31.902 31.902s-14.284 31.902-31.902 31.902v0zM575.015 53.839h-160.784c-17.62 0-31.902-14.284-31.902-31.902s14.282-31.902 31.902-31.902h160.784c17.617 0 31.902 14.284 31.902 31.902s-14.284 31.902-31.902 31.902v0zM256.896 666.897l-74.803 74.803c-12.447 12.444-32.624 12.444-45.070 0-12.444-12.447-12.444-32.624 0-45.070l74.803-74.803c6.222-6.222 14.379-9.333 22.535-9.333s16.313 3.111 22.535 9.333c12.447 12.447 12.447 32.624 0 45.070v0zM499.728 731.711c17.617 0 31.902 14.282 31.902 31.902v109.741c0 17.62-14.284 31.902-31.902 31.902-17.62 0-31.902-14.282-31.902-31.902v-109.741c0-17.62 14.282-31.902 31.902-31.902v0zM197.301 393.555h-94.429c-16.209 0-29.349-13.138-29.349-29.349s13.141-29.349 29.349-29.349h94.429c16.209 0 29.349 13.138 29.349 29.349s-13.141 29.349-29.349 29.349v0zM917 393.555h-94.429c-16.211 0-29.349-13.138-29.349-29.349s13.138-29.349 29.349-29.349h94.429c16.211 0 29.349 13.138 29.349 29.349s-13.138 29.349-29.349 29.349v0zM845.653 757.339c-12.447 12.447-32.624 12.447-45.070 0l-59.817-59.817c-12.447-12.444-12.444-32.624 0-45.070 6.222-6.222 14.379-9.333 22.535-9.333 8.154 0 16.313 3.111 22.535 9.336l59.817 59.817c12.447 12.444 12.444 32.624 0 45.068v0zM499.080 702.895c-134.081 0-243.164-109.083-243.164-243.164 0-77.008 37.070-150.264 99.16-195.96 0.401-0.293 0.814-0.556 1.225-0.827l-0.59-61.772c-0.082-8.514 3.244-16.706 9.236-22.755s14.152-9.451 22.665-9.451h207.819c17.617 0 31.902 14.284 31.902 31.902s-14.284 31.902-31.902 31.902h-175.617l0.408 42.335c0.148 15.662-11.020 28.482-25.873 31.144-1.396 1.613-2.971 3.108-4.76 4.423-47.242 34.765-75.446 90.488-75.446 149.059 0 101.973 82.959 184.932 184.932 184.932 101.975 0 184.934-82.959 184.934-184.932 0-32.3-8.442-64.079-24.411-91.905-8.006-13.945-3.188-31.741 10.76-39.744 13.942-8.001 31.743-3.185 39.744 10.76 21.024 36.633 32.139 78.434 32.139 120.892 0 134.078-109.083 243.161-243.164 243.161v0zM454.509 538.337c14.029 10.627 16.788 30.618 6.158 44.647-10.627 14.029-30.615 16.79-44.647 6.158-39.231-29.719-61.731-74.964-61.731-124.13 0-44.070 18.801-86.257 51.581-115.746 6.089-5.477 13.71-8.174 21.305-8.174 8.723 0 17.411 3.56 23.704 10.556 11.77 13.087 10.706 33.236-2.379 45.009-19.366 17.418-30.47 42.335-30.47 68.356-0.005 29.038 13.294 55.764 36.477 73.325v0z" />
<glyph unicode="&#xe903;" glyph-name="complain" d="M742.4 563.2c0-38.174-30.946-69.12-69.12-69.12s-69.12 30.946-69.12 69.12c0 38.174 30.946 69.12 69.12 69.12s69.12-30.946 69.12-69.12v0zM419.84 563.2c0-38.174-30.946-69.12-69.12-69.12s-69.12 30.946-69.12 69.12c0 38.174 30.946 69.12 69.12 69.12s69.12-30.946 69.12-69.12v0zM511.539 908.8c-254.362 0-460.339-206.438-460.339-460.8s205.978-460.8 460.339-460.8c254.822 0 461.261 206.438 461.261 460.8s-206.438 460.8-461.261 460.8v0zM512 79.36c-203.674 0-368.64 164.966-368.64 368.64s164.966 368.64 368.64 368.64c203.674 0 368.64-164.966 368.64-368.64s-164.966-368.64-368.64-368.64v0zM512 355.84c-107.366 0-199.066-66.816-235.93-161.28h76.954c31.795 54.835 90.778 92.16 158.976 92.16s126.72-37.325 158.976-92.16h76.954c-36.864 94.464-128.563 161.28-235.93 161.28v0z" />
<glyph unicode="&#xe904;" glyph-name="footer_logo" d="M51.2 469.542c75.651 3.692 148.278-3.196 228.367 26.486 179.694 66.613 321.707 39.022 441.051 0 119.388-39.026 215.491-26.486 250.6-26.486v16.072c-35.109 0-131.212-12.547-250.6 26.483-119.344 39.026-261.356 66.617-441.051 0-80.089-29.679-152.716-22.791-228.367-26.483v-16.072zM51.2 475.621c75.651 3.694 148.278-3.194 228.367 26.486 179.694 66.615 321.707 39.024 441.051 0 119.388-39.033 215.491-26.486 250.6-26.486v16.072c-35.109 0-131.212-12.547-250.6 26.486-119.344 39.024-261.356 66.615-441.051 0-80.089-29.682-152.716-22.794-228.367-26.486v-16.072zM301.98 339.734h-25.385v59.923c0 6.835-1.434 11.896-4.303 15.191-2.411 2.856-5.687 4.269-9.811 4.269-6.091 0-10.546-1.882-13.424-5.635-2.639-3.527-3.96-8.364-3.96-14.504v-59.243h-25.075v59.416c-0.122 6.026-0.813 10.402-2.075 13.142-2.314 4.541-6.862 6.824-13.654 6.824-5.768 0-9.983-1.882-12.628-5.635-2.296-3.176-3.452-7.741-3.452-13.657v-60.089h-25.378v98.795h24.594v-14.596h0.164c2.418 4.806 5.337 8.581 8.783 11.337 5.043 4.006 11.404 6.004 19.088 6.004 6.761 0 12.208-1.307 16.339-3.918 3.556-2.279 7.050-6.267 10.496-11.951l0.692 1.020c2.973 4.216 5.841 7.344 8.593 9.389 4.809 3.648 10.372 5.46 16.688 5.46 9.74 0 17.709-2.803 23.9-8.401 6.533-6.076 9.811-14.414 9.811-25.014v-68.124zM374.336 387.991c-1.262-1.143-3.136-2.108-5.645-2.909-2.63-0.917-6.434-1.761-11.455-2.562-5.832-1.143-9.93-2.505-12.326-4.095-3.421-2.398-5.132-6.024-5.132-10.918 0-4.21 1.304-7.397 3.927-9.573 2.175-1.704 4.789-2.564 7.877-2.564 6.045 0 11.225 1.77 15.568 5.293 4.791 3.764 7.185 8.551 7.185 14.348v12.98zM399.42 358.773c0-5.251 0.506-9.055 1.543-11.455 0.804-1.711 2.117-3.003 3.958-3.918v-3.598h-27.356c-0.807 2.281-1.379 4.111-1.719 5.466-0.23 1.375-0.464 3.308-0.683 5.813-4.36-4.328-8.206-7.467-11.537-9.386-5.841-3.415-12.489-5.14-19.944-5.14-8.149 0-14.909 2.341-20.302 7.017-6.193 5.243-9.296 12.646-9.296 22.23 0 9.22 2.687 16.63 8.065 22.217 4.816 5.137 11.512 8.327 20.081 9.582l23.007 3.413c2.623 0.562 4.628 1.312 6.005 2.222 2.062 1.362 3.094 3.183 3.094 5.469 0 4.903-2.011 8.208-6.027 9.924-2.402 1.13-5.954 1.704-10.657 1.704-5.85 0-10.027-1.527-12.56-4.609-1.956-2.275-3.039-5.346-3.275-9.222h-24.596c1.262 13.763 6.305 23.366 15.135 28.815 6.544 3.97 15.955 5.956 28.214 5.956 9.521 0 17.687-1.704 24.49-5.113 9.563-5.021 14.361-12.933 14.361-23.748v-53.64zM442.297 361.139h52.816v-21.238h-85.682v20.315l50.927 60.118h-48.334v20.94h80.506v-21.699zM567.592 408.89c-3.777 6.816-9.788 10.227-18.023 10.227-8.591 0-14.785-3.411-18.562-10.227-2.63-5.017-3.945-11.727-3.945-20.153 0-7.952 1.315-14.487 3.945-19.611 3.777-6.941 9.972-10.402 18.562-10.402 8.235 0 14.246 3.461 18.023 10.402 2.729 5.124 4.115 11.659 4.115 19.611 0 8.307-1.386 15.024-4.115 20.153zM583.016 349.363c-8.845-8.529-19.988-12.808-33.434-12.808-13.804 0-25.164 4.28-34.128 12.808-10.003 9.47-14.995 22.618-14.995 39.465 0 16.983 4.993 30.243 14.995 39.803 8.964 8.434 20.324 12.644 34.128 12.644 13.446 0 24.589-4.21 33.434-12.644 9.998-9.56 15-22.82 15-39.803 0-16.847-5.001-29.995-15-39.465zM696.611 339.734h-25.372v59.923c-0.122 5.46-0.922 9.612-2.422 12.457-2.526 4.67-7.225 7.002-14.109 7.002-5.965 0-10.843-1.933-14.626-5.802-3.899-4.095-5.854-9.788-5.854-17.066v-56.514h-25.376v98.795h24.554v-14.596h0.164c2.869 4.806 5.912 8.469 9.11 10.986 5.492 4.238 12.191 6.355 20.096 6.355 9.963 0 17.975-2.803 24.048-8.401 6.524-5.969 9.788-14.302 9.788-25.014v-68.124zM798.059 375.695c-0.8-8.647-3.77-16.454-8.94-23.397-8.025-10.499-19.778-15.743-35.266-15.743-16.644 0-28.83 5.706-36.548 17.093-5.759 8.527-8.633 19.416-8.633 32.623 0 16.976 3.686 30.182 11.048 39.632 8.071 10.259 20.023 15.373 35.861 15.373 10.087 0 18.867-2.457 26.313-7.381 9.861-6.539 15.364-16.748 16.514-30.647h-25.621c-0.939 4.212-2.42 7.671-4.482 10.409-2.866 3.755-6.699 5.578-11.517 5.462h-1.207c-7.348 0-12.794-3.238-16.348-9.711-2.634-5.001-3.952-11.308-3.952-18.922-0.128-8.746 0.74-15.439 2.579-20.102 2.979-8.184 8.655-12.28 17.029-12.28 5.627 0 10.14 2.402 13.596 7.18 2.621 3.534 3.958 6.993 3.958 10.413h25.615zM865.8 387.991c-1.258-1.143-3.138-2.108-5.633-2.909-2.637-0.917-6.458-1.761-11.475-2.562-5.819-1.143-9.928-2.505-12.319-4.095-3.421-2.398-5.127-6.024-5.127-10.918 0-4.21 1.306-7.397 3.927-9.573 2.181-1.704 4.8-2.564 7.868-2.564 6.047 0 11.247 1.77 15.579 5.293 4.776 3.764 7.181 8.551 7.181 14.348v12.98zM890.88 358.773c0-5.251 0.517-9.055 1.54-11.455 0.8-1.711 2.126-3.003 3.958-3.918v-3.598h-27.336c-0.807 2.281-1.386 4.111-1.735 5.466-0.23 1.375-0.453 3.308-0.687 5.813-4.358-4.328-8.195-7.467-11.519-9.386-5.854-3.415-12.5-5.14-19.957-5.14-8.14 0-14.911 2.341-20.304 7.017-6.184 5.243-9.282 12.646-9.282 22.23 0 9.22 2.681 16.63 8.073 22.217 4.794 5.137 11.481 8.327 20.076 9.582l22.989 3.413c2.639 0.562 4.628 1.312 6.014 2.222 2.053 1.362 3.090 3.183 3.090 5.469 0 4.903-2.007 8.208-6.020 9.924-2.413 1.13-5.956 1.704-10.661 1.704-5.854 0-10.036-1.527-12.562-4.609-1.943-2.275-3.045-5.346-3.258-9.222h-24.603c1.264 13.763 6.29 23.366 15.139 28.815 6.531 3.97 15.924 5.956 28.198 5.956 9.519 0 17.681-1.704 24.483-5.113 9.574-5.021 14.363-12.933 14.363-23.748v-53.64zM907.638 438.555h24.463v-17.207h0.181c3.306 6.59 6.524 11.238 9.62 13.969 4.584 3.97 10.546 5.956 17.893 5.956l4.986-0.34v-26.74c-1.143 0.331-2.402 0.555-3.784 0.682h-3.275c-9.514 0-16.264-2.562-20.284-7.693-2.869-3.74-4.301-9.103-4.301-16.044v-51.212h-25.5v98.629zM121.911 387.991c-1.262-1.143-3.138-2.108-5.645-2.909-2.623-0.917-6.447-1.761-11.464-2.562-5.817-1.143-9.921-2.505-12.319-4.095-3.423-2.398-5.13-6.024-5.13-10.918 0-4.21 1.302-7.397 3.934-9.573 2.175-1.704 4.789-2.564 7.87-2.564 6.042 0 11.232 1.77 15.566 5.293 4.791 3.764 7.187 8.551 7.187 14.348v12.98zM146.987 358.773c0-5.251 0.522-9.055 1.554-11.455 0.793-1.711 2.122-3.003 3.943-3.918v-3.598h-27.345c-0.798 2.281-1.372 4.111-1.719 5.466-0.23 1.375-0.464 3.308-0.685 5.813-4.358-4.328-8.195-7.467-11.528-9.386-5.848-3.415-12.496-5.14-19.961-5.14-8.137 0-14.9 2.341-20.291 7.017-6.193 5.243-9.287 12.646-9.287 22.23 0 9.22 2.687 16.63 8.062 22.217 4.8 5.137 11.497 8.327 20.083 9.582l23 3.413c2.63 0.562 4.635 1.312 6.003 2.222 2.069 1.362 3.096 3.183 3.096 5.469 0 4.903-2.007 8.208-6.022 9.924-2.402 1.13-5.963 1.704-10.661 1.704-5.85 0-10.029-1.527-12.555-4.609-1.954-2.275-3.048-5.346-3.275-9.222h-24.594c1.253 13.763 6.303 23.366 15.135 28.815 6.533 3.97 15.937 5.956 28.214 5.956 9.517 0 17.678-1.704 24.481-5.113 9.563-5.021 14.354-12.933 14.354-23.748v-53.64z" />
<glyph unicode="&#xe905;" glyph-name="car" d="M889.165 568.534l-75.544 194.341c-14.128 37.203-45.002 68.86-103.431 69.126h-397.007c-58.162-0.266-89.036-31.923-103.422-69.126l-75.562-194.341c-29.998-3.856-83.091-38.975-82.999-105.502v-247.445h73.719v-78.987c-0.184-97.377 138.139-96.22 138.102 0v78.987h497.332v-78.987c0.304-96.22 138.627-97.377 138.719 0v78.987h73.728v247.445c-0.23 66.528-53.361 101.646-83.635 105.502v0zM196.14 364.911c-35.334-0.101-63.941 29.261-63.793 65.371-0.147 36.358 28.459 65.747 63.793 65.444 35.224 0.303 63.83-29.086 63.784-65.444 0.046-36.11-28.57-65.463-63.784-65.371v0zM512 570.361h-299.142l56.973 153.034c6.875 21.723 17.547 37.267 42.753 37.643h398.85c24.819-0.376 35.518-15.911 42.725-37.643l56.983-153.034h-299.142zM827.869 364.911c-35.583-0.101-64.208 29.261-64.401 65.371 0.194 36.358 28.818 65.747 64.401 65.444 34.975 0.303 63.572-29.086 63.793-65.444-0.221-36.11-28.818-65.463-63.793-65.371v0z" />
<glyph unicode="&#xe906;" glyph-name="repair" d="M960.226 156.955l-383.522 383.522c37.723 96.404 16.766 211.67-60.777 289.213-83.83 83.83-209.575 100.596-310.171 52.394l182.33-182.33-127.841-127.841-182.33 182.33c-48.202-100.596-31.436-226.341 52.394-310.171 77.543-77.543 192.809-98.5 289.213-60.777l383.522-383.522c16.766-16.766 44.011-16.766 58.681 0l98.5 98.5c16.766 14.67 16.766 41.915 0 58.681v0z" />
<glyph unicode="&#xe907;" glyph-name="crash" d="M894.818 108.111v0h-99.249c-15.951 0-28.357 12.406-28.357 28.357s12.406 28.357 28.357 28.357v0h56.714l-33.674 83.298c-3.545 10.634-1.772 21.268 5.317 30.129l74.437 86.843-85.071 72.665c-10.634 8.862-12.406 23.040-7.089 35.446l40.763 76.209-88.615 19.495c-12.406 1.772-21.268 12.406-23.040 24.812l-14.178 99.249-81.526-53.169c-12.406-8.862-28.357-5.317-37.218 5.317l-72.665 79.754-53.169-79.754c-7.089-10.634-21.268-15.951-35.446-10.634l-86.843 33.674-17.723-42.535c-5.317-14.178-21.268-21.268-37.218-14.178-14.178 5.317-21.268 23.040-15.951 37.218l28.357 69.12c5.317 14.178 23.040 21.268 37.218 15.951l92.16-35.446 62.031 90.388c5.317 7.089 12.406 12.406 21.268 12.406s17.723-3.545 23.040-8.862l79.754-88.615 97.477 65.575c8.862 5.317 19.495 7.089 28.357 1.772 8.862-3.545 15.951-12.406 17.723-23.040l17.723-125.834 106.338-23.040c8.862-1.772 15.951-7.089 19.495-15.951s3.545-17.723 0-26.585l-47.852-90.388 86.843-77.982c12.406-10.634 12.406-28.357 1.772-40.763l-81.526-93.932 44.308-106.338c3.545-8.862 3.545-19.495-3.545-26.585-1.772-7.089-10.634-12.406-19.495-12.406v0zM226.658 333.194c17.723 38.991 40.763 40.763 56.714 63.803h-12.406c-67.348 1.772-99.249 15.951-102.794 17.723-10.634 5.317-14.178 19.495-8.862 30.129l26.585 49.625c3.545 7.089 10.634 12.406 19.495 12.406h168.369c15.951 0 28.357 14.178 28.357 30.129s-12.406 28.357-28.357 28.357h-202.043c-7.089 0-15.951-3.545-19.495-10.634l-47.852-83.298c-21.268-8.862-49.625-30.129-49.625-69.12v-85.071c0-46.080 28.357-37.218 28.357-70.892 0-12.406 10.634-23.040 23.040-23.040h77.982c47.852 1.772 23.040 62.031 42.535 109.883v0zM138.043 317.243c-19.495 0-35.446 15.951-35.446 35.446s15.951 35.446 35.446 35.446c19.495 0 35.446-15.951 35.446-35.446s-15.951-35.446-35.446-35.446v0zM315.274 352.689l47.852 81.526c3.545 7.089 10.634 10.634 19.495 10.634h221.538c7.089 0 15.951-3.545 19.495-10.634l47.852-81.526c23.040-8.862 53.169-31.902 53.169-77.982v-83.298c0-23.040-12.406-38.991-28.357-46.080v-17.723c0-12.406-10.634-23.040-23.040-23.040h-37.218c-7.089 0-14.178 3.545-19.495 8.862s-7.089 14.178-7.089 21.268v-3.545c0 8.862-3.545 15.951-8.862 23.040-7.089 7.089-14.178 8.862-23.040 8.862h-168.369c-7.089 0-14.178-3.545-19.495-8.862s-8.862-12.406-8.862-19.495v-5.317c0-7.089-1.772-12.406-7.089-17.723s-10.634-7.089-17.723-7.089h-38.991c-12.406 0-23.040 10.634-23.040 23.040v23.040c0 17.723-28.357 15.951-28.357 47.852v85.071c0 38.991 28.357 60.258 49.625 69.12v0zM379.077 297.748c3.545-1.772 38.991-21.268 116.972-21.268s109.883 19.495 113.428 21.268c10.634 5.317 12.406 19.495 7.089 28.357l-23.040 46.080c-3.545 7.089-10.634 12.406-19.495 12.406h-159.508c-8.862 0-15.951-5.317-19.495-12.406l-24.812-44.308c-5.317-10.634-1.772-23.040 8.862-30.129v0z" />
<glyph unicode="&#xe908;" glyph-name="compare" d="M129.886 703.246l64.379-13.14 42.92 18.397 32.19-15.769 42.92 31.537 53.649 18.397v-155.057h-236.057zM444.629 499.006v0 409.794h-393.429v-409.794h393.429zM102.967 551.543v304.719h289.895v-304.719h-289.895zM961.707 499.006v0 409.794h-404.67v-409.794h404.67zM610.283 551.543v304.719h298.178v-304.719h-298.178zM826.817 764.818h44.963v-177.208h-44.963zM736.891 665.139h44.963v-77.529h-44.963zM646.964 720.516h44.963v-132.906h-44.963zM646.964 173.069l61.314-13.185 40.876 29.007 30.657-15.822 43.431 10.548 48.54-23.733v-81.748h-224.817zM961.707 0.607v0 398.719h-404.67v-398.719h404.67zM610.283 51.725v296.483h298.178v-296.483h-298.178zM444.629 0.607v0 398.719h-393.429v-398.719h393.429zM102.967 51.725v296.483h289.895v-296.483h-289.895zM309.739 144.589h56.204v-66.453h-56.204zM219.812 199.967h56.204v-121.831h-56.204zM129.886 166.74h56.204v-88.604h-56.204z" />
<glyph unicode="&#xe909;" glyph-name="footer_sns1" d="M512-12.8c-254.493 0-460.8 206.307-460.8 460.8s206.307 460.8 460.8 460.8c254.493 0 460.8-206.307 460.8-460.8s-206.307-460.8-460.8-460.8zM635.104 704h-84.165c-49.946 0-105.501-21.007-105.501-93.406 0.244-25.227 0-49.386 0-76.577h-57.781v-91.947h59.569v-264.699h109.461v266.446h72.248l6.537 90.458h-80.671c0 0 0.181 40.24 0 51.925 0 28.611 29.77 26.972 31.561 26.972 14.167 0 41.712-0.041 48.783 0v90.827h-0.041z" />
<glyph unicode="&#xe90a;" glyph-name="footer_sns2" d="M512-12.8v0 0c-254.493 0-460.8 206.307-460.8 460.8s206.307 460.8 460.8 460.8c254.493 0 460.8-206.307 460.8-460.8s-206.307-460.8-460.8-460.8zM459.546 615.711h-130.403v-347.742h130.403v164.144l118.029-162.453 1.507 1.095v-2.787h130.403v347.742h-130.403v-159.296l-116.112 159.814-3.425-2.488v1.971z" />
<glyph unicode="&#xe90b;" glyph-name="question_1" d="M485.652 283.429c36.71 0 68.145-10.98 94.306-32.94 26.161-21.622 39.241-46.96 39.241-76.015 0-30.068-13.502-55.997-40.507-77.788s-59.284-32.686-96.837-32.686c-36.71 0-68.145 9.966-94.306 29.899-28.271 21.622-42.406 48.311-42.406 80.069 0 29.392 12.447 54.224 37.343 74.494 27.849 23.311 62.237 34.967 103.167 34.967v0zM507.563 832c42.944 0 86.463-9.185 130.558-27.556 45.628-19.136 81.479-45.927 107.552-80.372 25.306-32.914 37.96-68.507 37.96-106.78 0-44.396-18.213-81.711-54.639-111.947-9.586-8.037-37.768-23.537-84.546-46.501-16.871-8.42-29.428-16.553-37.672-24.399s-15.433-18.275-21.568-31.288c-13.037-28.322-24.539-46.214-34.509-53.677s-27.032-11.195-51.188-11.195c-23.006 0-41.219 6.698-54.639 20.093s-20.13 31.766-20.13 55.112c0 21.050 5.176 43.439 15.529 67.168 2.684 5.741 17.446 28.704 44.286 68.89 24.923 37.507 37.384 72.717 37.384 105.632 0 16.457-3.738 29.948-11.215 40.473s-16.967 15.787-28.47 15.787c-11.886 0-20.322-3.732-25.306-11.195s-8.627-21.528-10.928-42.195c-3.834-39.038-16.679-68.699-38.535-88.983-21.856-20.667-50.421-31.001-85.697-31.001-24.54 0-44.478 6.889-59.815 20.667-17.638 15.692-26.457 35.785-26.457 60.279 0 37.124 12.749 73.196 38.247 108.215s58.185 60.949 98.062 77.789c42.177 17.988 87.422 26.982 135.734 26.982v0z" />
<glyph unicode="&#xe90c;" glyph-name="question_2" d="M512-12.8c254.493 0 460.8 206.307 460.8 460.8s-206.307 460.8-460.8 460.8c-254.493 0-460.8-206.307-460.8-460.8s206.307-460.8 460.8-460.8zM488.278 320.439c28.553 0 53.003-8.54 73.351-25.62 20.348-16.818 30.522-36.525 30.522-59.124 0-23.387-10.502-43.554-31.506-60.503s-46.111-25.423-75.32-25.423c-28.553 0-53.003 7.752-73.351 23.255-21.989 16.818-32.983 37.576-32.983 62.277 0 22.861 9.682 42.175 29.045 57.941 21.661 18.131 48.408 27.197 80.243 27.197zM505.321 747.116c33.402 0 67.251-7.144 101.547-21.433 35.49-14.884 63.374-35.722 83.654-62.513 19.683-25.601 29.525-53.285 29.525-83.053 0-34.531-14.166-63.555-42.498-87.072-7.456-6.251-29.375-18.307-65.76-36.168-13.122-6.549-22.889-12.875-29.301-18.977s-12.004-14.214-16.775-24.335c-10.14-22.029-19.087-35.945-26.841-41.75s-21.025-8.707-39.814-8.707c-17.894 0-32.060 5.209-42.498 15.628s-15.657 24.707-15.657 42.866c0 16.373 4.026 33.787 12.078 52.243 2.088 4.465 13.569 22.326 34.446 53.583 19.385 29.173 29.077 56.559 29.077 82.16 0 12.8-2.908 23.294-8.723 31.48s-13.197 12.279-22.144 12.279c-9.245 0-15.806-2.902-19.683-8.707s-6.71-16.744-8.5-32.819c-2.982-30.364-12.973-53.434-29.972-69.211-16.999-16.075-39.217-24.112-66.654-24.112-19.087 0-34.595 5.358-46.524 16.075-13.719 12.205-20.578 27.833-20.578 46.885 0 28.875 9.916 56.931 29.748 84.169s45.256 47.406 76.272 60.504c32.805 13.991 67.996 20.987 105.573 20.987z" />
<glyph unicode="&#xe90d;" glyph-name="email" d="M514.064 353.313c27.498 0.079 53.222 10.752 72.438 30.054l359.896 361.592h-869.622l364.666-362.022c19.331-19.177 45.216-29.399 72.622-29.624zM316.16 456.019l-264.96 264.474v-529.886zM706.88 455.077l265.916-264.102v529.513zM684.8 430.607l-75.675-74.349c-25.183-25.31-58.913-39.304-94.959-39.405h-0.415c-35.908 0-69.546 13.79-94.798 38.84l-76.873 74.914-264.96-261.651h869.76l-262.080 261.651z" />
<glyph unicode="&#xe90e;" glyph-name="mobile" d="M711.177 908.399l-400.982 0.401c-44.309 0-79.795-35.893-79.795-80.208v-721.871c0-44.315 35.487-80.208 79.795-80.208h400.982c44.309 0 80.196 35.893 80.196 80.208v721.871c0 44.315-35.888 79.807-80.196 79.807zM711.177 186.929h-400.982v561.456h400.982v-561.456zM517.565 53.983c-25.818 0-46.748 20.93-46.748 46.748s20.93 46.748 46.748 46.748c25.818 0 46.748-20.93 46.748-46.748s-20.93-46.748-46.748-46.748z" />
<glyph unicode="&#xe90f;" glyph-name="arrow_up" d="M512 641.111l432.16-432.16 24.009 24.009-456.169 456.169-456.169-456.169 24.009-24.009 432.16 432.16z" />
<glyph unicode="&#xe910;" glyph-name="arrow_down" d="M512 254.889l432.16 432.16 24.009-24.009-456.169-456.169-456.169 456.169 24.009 24.009 432.16-432.16z" />
<glyph unicode="&#xe911;" glyph-name="arrow_right" d="M859.756 448.75l-207.655 207.655 22.989 22.989 230.644-230.644-230.644-230.644-22.989 22.989 207.655 207.655zM871.565 464.256h-747.789v-32.512h768v32.512h-20.211z" />
<glyph unicode="&#xe912;" glyph-name="arrow_left" d="M169.364 448.75l207.655 207.655-22.989 22.989-230.644-230.644 230.644-230.644 22.989 22.989-207.655 207.655zM157.555 464.256h747.789v-32.512h-768v32.512h20.211z" />
<glyph unicode="&#xe913;" glyph-name="filter" d="M857.6 596.48c21.208 0 38.4-17.192 38.4-38.4v-532.48c0-21.208-17.192-38.4-38.4-38.4s-38.4 17.192-38.4 38.4v532.48c0 21.208 17.192 38.4 38.4 38.4zM514.56 908.8c21.208 0 38.4-17.192 38.4-38.4v-445.44c0-21.208-17.192-38.4-38.4-38.4s-38.4 17.192-38.4 38.4v445.44c0 21.208 17.192 38.4 38.4 38.4zM166.4 908.8c19.794 0 35.84-16.046 35.84-35.84v-225.28c0-19.794-16.046-35.84-35.84-35.84s-35.84 16.046-35.84 35.84v225.28c0 19.794 16.046 35.84 35.84 35.84zM166.4 481.28v0c32.519 0 58.88 26.361 58.88 58.88s-26.361 58.88-58.88 58.88c-32.519 0-58.88-26.361-58.88-58.88s26.361-58.88 58.88-58.88v0zM166.4 424.96v0c-63.623 0-115.2 51.577-115.2 115.2s51.577 115.2 115.2 115.2c63.623 0 115.2-51.577 115.2-115.2s-51.577-115.2-115.2-115.2v0zM514.56 248.32v0c32.519 0 58.88 26.361 58.88 58.88s-26.361 58.88-58.88 58.88c-32.519 0-58.88-26.361-58.88-58.88s26.361-58.88 58.88-58.88v0zM514.56 192v0c-63.623 0-115.2 51.577-115.2 115.2s51.577 115.2 115.2 115.2c63.623 0 115.2-51.577 115.2-115.2s-51.577-115.2-115.2-115.2v0zM514.56 232.96c21.208 0 38.4-17.192 38.4-38.4v-168.96c0-21.208-17.192-38.4-38.4-38.4s-38.4 17.192-38.4 38.4v168.96c0 21.208 17.192 38.4 38.4 38.4zM857.6 616.96v0c32.519 0 58.88 26.361 58.88 58.88s-26.361 58.88-58.88 58.88c-32.519 0-58.88-26.361-58.88-58.88s26.361-58.88 58.88-58.88v0zM857.6 560.64v0c-63.623 0-115.2 51.577-115.2 115.2s51.577 115.2 115.2 115.2c63.623 0 115.2-51.577 115.2-115.2s-51.577-115.2-115.2-115.2v0zM857.6 908.8c21.208 0 38.4-17.192 38.4-38.4v-81.92c0-21.208-17.192-38.4-38.4-38.4s-38.4 17.192-38.4 38.4v81.92c0 21.208 17.192 38.4 38.4 38.4zM166.4 463.36c19.794 0 35.84-16.046 35.84-35.84v-404.48c0-19.794-16.046-35.84-35.84-35.84s-35.84 16.046-35.84 35.84v404.48c0 19.794 16.046 35.84 35.84 35.84z" />
<glyph unicode="&#xe914;" glyph-name="sns_naver" d="M512 58.092v0c215.34 0 389.908 174.568 389.908 389.908s-174.568 389.908-389.908 389.908c-215.34 0-389.908-174.568-389.908-389.908s174.568-389.908 389.908-389.908v0zM512-12.8v0c-254.493 0-460.8 206.307-460.8 460.8s206.307 460.8 460.8 460.8c254.493 0 460.8-206.307 460.8-460.8s-206.307-460.8-460.8-460.8v0zM573.96 625.231v-178.845l-123.447 178.845h-133.467v-354.462h133.010v178.845l123.469-178.845h133.428v354.462z" />
<glyph unicode="&#xe915;" glyph-name="sns_facebook" d="M512 58.092v0c215.34 0 389.908 174.568 389.908 389.908s-174.568 389.908-389.908 389.908c-215.34 0-389.908-174.568-389.908-389.908s174.568-389.908 389.908-389.908v0zM512-12.8v0c-254.493 0-460.8 206.307-460.8 460.8s206.307 460.8 460.8 460.8c254.493 0 460.8-206.307 460.8-460.8s-206.307-460.8-460.8-460.8v0zM645.338 713.846h-87.55c-51.955 0-109.744-21.852-109.744-97.163 0.254-26.241 0-51.373 0-79.657h-60.105v-95.645h61.965v-275.346h113.864v277.164h75.154l6.8 94.097h-83.916c0 0 0.188 41.858 0 54.014 0 29.761 30.968 28.057 32.831 28.057 14.736 0 43.389-0.043 50.745 0v94.48h-0.043z" />
<glyph unicode="&#xe916;" glyph-name="sns_kakao" d="M512 58.092v0c215.34 0 389.908 174.568 389.908 389.908s-174.568 389.908-389.908 389.908c-215.34 0-389.908-174.568-389.908-389.908s174.568-389.908 389.908-389.908v0zM512-12.8v0c-254.493 0-460.8 206.307-460.8 460.8s206.307 460.8 460.8 460.8c254.493 0 460.8-206.307 460.8-460.8s-206.307-460.8-460.8-460.8v0zM529.723 642.954c-117.459 0-212.677-74.578-212.677-166.572 0-59.476 39.807-111.664 99.688-141.133-3.258-11.16-20.934-71.797-21.638-76.56 0 0-0.423-3.579 1.91-4.944s5.078-0.305 5.078-0.305c6.691 0.928 77.592 50.4 89.864 58.991 12.26-1.725 24.883-2.62 37.775-2.62 117.459 0 212.677 74.576 212.677 166.572s-95.218 166.572-212.677 166.572v0z" />
<glyph unicode="&#xe917;" glyph-name="sns_google" d="M512 58.092v0c215.34 0 389.908 174.568 389.908 389.908s-174.568 389.908-389.908 389.908c-215.34 0-389.908-174.568-389.908-389.908s174.568-389.908 389.908-389.908v0zM512-12.8v0c-254.493 0-460.8 206.307-460.8 460.8s206.307 460.8 460.8 460.8c254.493 0 460.8-206.307 460.8-460.8s-206.307-460.8-460.8-460.8v0zM707.455 482.385v52.762h-37.62v-52.762h-54.172v-37.687h54.172v-54.27h37.62v54.27h52.668v37.687h-52.668zM433.584 485.4v-60.3c0 0 58.392 0.078 82.168 0.078-12.875-39.091-32.895-60.378-82.168-60.378-49.864 0-88.783 40.496-88.783 90.45s38.918 90.45 88.783 90.45c26.364 0 43.391-9.283 59.009-22.222 12.502 12.524 11.457 14.309 43.264 44.4-27 24.62-62.887 39.629-102.273 39.629-83.939 0-151.984-68.168-151.984-152.257s68.045-152.257 151.984-152.257c125.465 0 156.131 109.444 145.965 182.407h-145.965z" />
<glyph unicode="&#xe918;" glyph-name="capital" d="M613.282 840.443v1.221c0 1.221 0 2.441-1.221 2.441v1.221c0 1.221 0 1.221-1.221 2.441 0 0 0 1.221-1.221 1.221 0 1.221-1.221 1.221-1.221 2.441 0 0 0 1.221-1.221 1.221 0 1.221-1.221 2.441-2.441 2.441 0 1.221-1.221 1.221-1.221 2.441s-1.221 1.221-1.221 2.441c0 1.221-1.221 1.221-2.441 1.221l-1.221 1.221c-1.221 1.221-1.221 1.221-2.441 2.441l-1.221 1.221c-1.221 1.221-1.221 1.221-2.441 2.441l-1.221 1.221c-4.883 3.662-10.986 6.103-17.089 9.765 0 0 0 0-1.221 0-1.221 1.221-3.662 1.221-4.883 2.441 0 0 0 0-1.221 0-42.723 18.31-111.080 26.855-175.775 26.855s-133.052-8.545-175.775-26.855c0 0 0 0-1.221 0-1.221-1.221-3.662-1.221-4.883-2.441 0 0 0 0-1.221 0-6.103-2.441-12.207-6.103-17.089-9.765l-1.221-1.221c-1.221-1.221-1.221-1.221-2.441-2.441l-1.221-1.221c-1.221-1.221-1.221-1.221-2.441-2.441l-1.221-1.221c-1.221 0-1.221-1.221-2.441-1.221-1.221-1.221-1.221-1.221-1.221-2.441s-1.221-1.221-1.221-2.441-1.221-1.221-2.441-2.441c0 0 0-1.221-1.221-1.221 0-1.221-1.221-1.221-1.221-2.441 0 0 0-1.221-1.221-1.221 0-1.221-1.221-1.221-1.221-2.441v-1.221c0-1.221 0-2.441-1.221-2.441v-51.268c0-50.047 114.742-73.239 222.16-73.239 106.197 0 222.16 23.192 222.16 73.239v0 45.164c1.222 1.221 1.222 3.662 0.001 4.883v0zM392.342 791.616c-126.949 0-192.865 30.517-192.865 43.944v2.441c0 0 0 1.221 1.221 1.221v0l1.221 1.221c1.221 1.221 1.221 1.221 2.441 2.441v0c1.221 0 1.221 1.221 2.441 2.441v0c1.221 0 2.441 1.221 3.662 1.221v0c4.883 2.441 12.207 6.103 20.751 8.545v0c8.545 2.441 18.31 6.103 29.296 8.545v0c2.441 1.221 6.103 1.221 8.545 2.441 30.517 6.103 70.798 10.986 119.625 10.986s89.108-4.883 119.625-10.986c2.441-1.221 6.103-1.221 8.545-2.441v0c10.986-2.441 20.751-6.103 29.296-8.545v0c8.545-2.441 14.648-6.103 20.751-8.545v0c1.221 0 2.441-1.221 3.662-1.221v0c1.221-1.221 2.441-1.221 2.441-2.441v0c1.221-1.221 1.221-1.221 2.441-2.441v0c1.221 0 1.221-1.221 1.221-1.221v0l1.221-1.221v-2.441c7.324-13.427-58.592-43.944-185.541-43.944v0zM392.342 680.536c31.737 0 166.010 2.441 222.16 48.826v-75.681c-56.151-46.385-189.203-48.826-222.16-48.826-31.737 0-164.789 2.441-220.94 48.826l-1.221 72.019c0 1.221 0 2.441 1.221 3.662 56.15-46.385 189.203-48.826 220.94-48.826v0zM171.402 429.080l-1.221 72.019c0 1.221 0 2.441 1.221 3.662 47.606-39.061 150.141-46.385 198.968-48.827v0-3.662c0-3.662-1.221-6.103-1.221-9.765v-62.254c-50.047 2.442-150.141 9.766-197.747 48.826v0zM171.402 541.381l-1.221 72.019c0 1.221 0 2.441 1.221 3.662 56.15-46.385 189.203-48.826 220.94-48.826s166.010 2.441 222.16 48.826v-62.254c-70.798-1.221-133.052-12.207-175.775-29.296v0h-1.221c-2.441-1.221-3.662-1.221-6.103-2.441h-1.221c-8.545-3.662-15.869-8.545-23.192-12.207v0l-1.221-1.221c-1.221-1.221-2.441-2.441-3.662-2.441-1.221-1.221-1.221-1.221-2.441-2.441s-2.441-2.441-3.662-2.441c-1.221-1.221-1.221-1.221-2.441-2.441v0c-1.221-1.221-2.441-2.441-2.441-2.441l-2.441-2.441c-36.62-2.441-162.348 1.22-217.278 46.385v0zM171.402 316.779l-1.221 72.019c0 1.221 0 2.441 1.221 3.662 47.606-39.061 147.7-46.385 198.968-48.826v-75.681c-51.268 1.221-151.362 9.766-198.968 48.827v0zM369.15 155.652c-50.047 1.221-151.362 9.765-198.968 48.826l-1.221 72.019c0 1.221 0 2.442 1.221 3.662 47.606-39.061 147.7-46.385 198.968-48.826v-75.681zM850.090 447.39v1.221c0 1.221 0 2.441-1.221 2.441v1.221c0 1.221 0 1.221-1.221 2.441 0 0 0 1.221-1.221 1.221 0 1.221-1.221 1.221-1.221 2.441 0 0 0 1.221-1.221 1.221 0 1.221-1.221 2.441-2.441 2.441 0 1.221-1.221 1.221-1.221 2.441s-1.221 1.221-1.221 2.441c0 1.221-1.221 1.221-2.441 1.221l-1.221 1.221c-1.221 1.221-1.221 1.221-2.441 2.441l-1.221 1.221c-1.221 1.221-1.221 1.221-2.441 2.441l-1.221 1.221c-4.883 3.662-10.986 6.103-17.089 9.765 0 0 0 0-1.221 0-1.221 1.221-3.662 1.221-4.883 2.441 0 0 0 0-1.221 0-42.723 18.31-111.080 26.855-175.775 26.855s-133.052-8.545-175.775-26.855c0 0 0 0-1.221 0-1.221-1.221-3.662-1.221-4.883-2.441 0 0 0 0-1.221 0-6.103-2.441-12.207-6.103-17.089-9.765l-1.221-1.221c-1.221-1.221-1.221-1.221-2.441-2.441l-1.221-1.221c-1.221-1.221-1.221-1.221-2.441-2.441l-1.221-1.221c-1.221 0-1.221-1.221-2.441-1.221-1.221-1.221-1.221-1.221-1.221-2.441s-1.221-1.221-1.221-2.441-1.221-1.221-2.441-2.441c0 0 0-1.221-1.221-1.221 0-1.221-1.221-1.221-1.221-2.441 0 0 0-1.221-1.221-1.221 0-1.221-1.221-1.221-1.221-2.441v-1.221c0-1.221 0-2.441-1.221-2.441v-51.268c0-50.047 114.742-73.24 222.16-73.24 106.198 0 222.16 23.192 222.16 73.24v0 45.165c1.221 2.441 1.221 3.662 0 4.883v0zM629.151 399.784c-126.949 0-192.865 30.517-192.865 43.944v2.441c0 0 0 1.221 1.221 1.221v0l1.221 1.221c1.221 1.221 1.221 1.221 2.441 2.441v0c1.221 0 1.221 1.221 2.441 2.441v0c1.221 0 2.441 1.221 3.662 1.221v0c4.883 2.441 12.207 6.103 20.751 8.545v0c8.545 2.441 18.31 6.103 29.296 8.545v0c2.441 1.221 6.103 1.221 8.545 2.441 30.517 6.103 70.798 10.986 119.625 10.986s89.108-4.883 119.625-10.986c2.441-1.221 6.103-1.221 8.545-2.441v0c10.986-2.441 20.751-6.103 29.296-8.545v0c8.545-2.441 14.648-6.103 20.751-8.545v0c1.221 0 2.441-1.221 3.662-1.221v0c1.221-1.221 2.441-1.221 2.441-2.441v0c1.221-1.221 1.221-1.221 2.441-2.441v0c1.221 0 1.221-1.221 1.221-1.221v0l1.221-1.221v-2.441c7.324-13.427-58.592-43.944-185.54-43.944v0zM406.99 332.648c0 1.221 0 2.441 1.221 3.662 56.15-46.385 189.203-48.826 220.94-48.826s166.010 2.441 222.16 48.826v-75.681c-56.151-46.385-189.203-48.826-222.16-48.826-31.737 0-164.789 2.441-220.94 48.826l-1.221 72.019zM406.99 220.347c0 1.221 0 2.441 1.221 3.662 56.15-46.385 189.203-48.826 220.94-48.826s166.010 2.441 222.16 48.826v-75.681c-56.151-46.385-189.203-48.826-222.16-48.826-31.737 0-164.789 2.442-220.94 48.826l-1.221 72.019zM406.99 108.046c0 1.221 0 2.441 1.221 3.662 56.15-46.385 189.203-48.826 220.94-48.826s166.010 2.442 222.16 48.826v-75.681c-56.151-46.385-189.203-48.826-222.16-48.826-31.737 0-164.789 2.441-220.94 48.826l-1.221 72.019z" />
<glyph unicode="&#xe919;" glyph-name="notice" d="M570.971 897.356c-30.123-14.287-65.484-71.437-98.226-138.977-85.129-171.449-214.788-303.932-377.188-381.863-40.6-19.483-57.626-76.632-32.742-127.288 24.884-51.954 78.581-76.632 120.491-57.15l2.619 1.299c7.858 3.897 17.026 7.793 24.884 11.69 11.787 5.195 24.884 0 30.123-10.391l82.51-168.851 13.097-25.977c5.239-11.69 19.645-15.586 30.123-10.391l127.039 61.046c19.645 9.092 17.026 37.667-3.929 42.862-5.239 1.299-11.787 1.299-17.026 1.299l-68.103 137.678c-6.548 14.287 2.619 29.874 17.026 32.471 96.916 12.989 197.762 9.092 299.917-12.989 73.342-15.586 140.136-23.379 170.258-7.793 99.536 48.058 108.703 233.794 19.645 414.334-89.058 179.242-240.981 287.047-340.517 238.989v0zM856.481 316.769c-77.271-37.667-195.142 46.759-263.246 187.035-69.413 138.977-62.865 283.15 14.406 320.817s195.142-46.759 263.246-187.035c69.413-140.276 61.555-284.449-14.406-320.817v0z" />
</font>
</defs>
</svg>
